<?xml version="1.2" baseProfile="tiny-ps" encoding="UTF-8"?>
<svg width="291.04mm" height="291.06mm" version="1.1" viewBox="0 0 291.04 291.06" xmlns="http://www.w3.org/2000/svg">
 <title>WikiForge</title>
 <defs>
  <clipPath id="cp1">
   <path d="m771 1000.5c-119.49 132.75-322.51 132.75-442 0-145.41-161.56-253.38-355.34-315.7-566.61-51.21-173.59 50.3-355.79 220.99-396.63 207.74-49.71 423.68-49.71 631.42 0 170.69 40.84 272.2 223.04 220.99 396.63-62.32 211.27-170.29 405.05-315.7 566.61z"/>
  </clipPath>
  <linearGradient id="g1" x1="151260" x2="1058821" y1="1058821" y2="151260" gradientTransform="scale(.99993 1.0001)" gradientUnits="userSpaceOnUse" href="#P">
   <stop stop-color="#f22121" offset="0"/>
   <stop stop-color="#fa611a" offset="1"/>
  </linearGradient>
 </defs>
 <g transform="translate(29.443 39.845)">
  <g transform="matrix(.26458 0 0 .26458 -29.444 -39.839)" clip-path="url(#cp1)">
   <path class="a" d="m771 1000.5c-119.5 132.8-322.5 132.8-442 0-145.4-161.6-253.4-355.3-315.7-566.6-51.2-173.6 50.3-355.8 221-396.6 207.7-49.8 423.7-49.8 631.4 0 170.7 40.8 272.2 223 221 396.6-62.3 211.3-170.3 405-315.7 566.6z" fill="url(#g1)"/>
   <path class="b" d="m569.2 80c61.2 254.2-240.4 477.7-147.2 729.7-68.9-54.8-112.3-135.6-119.6-223.3-3.6-42.6 1.5-85.3 14.6-125.6-89.4 74.6-141.2 185-141.4 301.5 0 217.5 176.2 393.7 393.6 393.7 217.5 0 393.7-176.2 393.7-393.7 0-134.2-97.5-235.4-80.9-436.5 0 0-110 92.3-110 197.2 0 72.1 22 83.3 22 127 0 43.4-35.2 78.5-78.5 78.5-26.6 0-51.5-13.5-65.9-35.8-13.6-21-53.2-87.8 28.8-272.4 67.9-152.8-18.9-281.6-109.2-340.3z" fill="#fff"/>
  </g>
 </g>
</svg>
